{
  "accessors": [
    {
      "bufferView": 2,
      "componentType": 5126,
      "count": 2491,
      "max": [
        1.6313999891281128,
        0.16901096701622009,
        2.0285909175872803
      ],
      "min": [
        -1.0850570201873779,
        -2.6703929901123047,
        -1.4022530317306519
      ],
      "type": "VEC3"
    },
    {
      "bufferView": 2,
      "byteOffset": 29892,
      "componentType": 5126,
      "count": 2491,
      "max": [
        0.63604611158370972,
        0.97165745496749878,
        0.97239774465560913
      ],
      "min": [
        -0.99991220235824585,
        -0.99994355440139771,
        -0.90961956977844238
      ],
      "type": "VEC3"
    },
    {
      "bufferView": 1,
      "componentType": 5126,
      "count": 2491,
      "max": [
        0.060939095914363861,
        0.060546875
      ],
      "min": [
        0,
        0
      ],
      "type": "VEC2"
    },
    {
      "bufferView": 0,
      "componentType": 5125,
      "count": 13266,
      "max": [
        2490
      ],
      "min": [
        0
      ],
      "type": "SCALAR"
    },
    {
      "bufferView": 2,
      "byteOffset": 59784,
      "componentType": 5126,
      "count": 20881,
      "max": [
        1.9290759563446045,
        0.78968101739883423,
        2.2186529636383057
      ],
      "min": [
        -1.2875930070877075,
        -2.750777006149292,
        -1.4100128412246704
      ],
      "type": "VEC3"
    },
    {
      "bufferView": 2,
      "byteOffset": 310356,
      "componentType": 5126,
      "count": 20881,
      "max": [
        0.99999827146530151,
        0.99998962879180908,
        0.9999997615814209
      ],
      "min": [
        -1,
        -0.99999463558197021,
        -0.99990588426589966
      ],
      "type": "VEC3"
    },
    {
      "bufferView": 1,
      "byteOffset": 19928,
      "componentType": 5126,
      "count": 20881,
      "max": [
        0.99121302366256714,
        0.99180197715759277
      ],
      "min": [
        0.0080899996683001518,
        0.0083940001204609871
      ],
      "type": "VEC2"
    },
    {
      "bufferView": 0,
      "byteOffset": 53064,
      "componentType": 5125,
      "count": 112764,
      "max": [
        20880
      ],
      "min": [
        0
      ],
      "type": "SCALAR"
    },
    {
      "bufferView": 2,
      "byteOffset": 560928,
      "componentType": 5126,
      "count": 23363,
      "max": [
        1.9059120416641235,
        0.76134198904037476,
        2.1628389358520508
      ],
      "min": [
        -1.3674490451812744,
        -2.7479779720306396,
        -1.3908540010452271
      ],
      "type": "VEC3"
    },
    {
      "bufferView": 2,
      "byteOffset": 841284,
      "componentType": 5126,
      "count": 23363,
      "max": [
        0.99999934434890747,
        0.99934834241867065,
        0.99999707937240601
      ],
      "min": [
        -0.99983114004135132,
        -1,
        -0.99995702505111694
      ],
      "type": "VEC3"
    },
    {
      "bufferView": 1,
      "byteOffset": 186976,
      "componentType": 5126,
      "count": 23363,
      "max": [
        0.99169600009918213,
        0.99185299873352051
      ],
      "min": [
        0.0081179998815059662,
        0.0083219995722174644
      ],
      "type": "VEC2"
    },
    {
      "bufferView": 0,
      "byteOffset": 504120,
      "componentType": 5125,
      "count": 122091,
      "max": [
        23362
      ],
      "min": [
        0
      ],
      "type": "SCALAR"
    },
    {
      "bufferView": 2,
      "byteOffset": 1121640,
      "componentType": 5126,
      "count": 35252,
      "max": [
        1.9126579761505127,
        0.79026496410369873,
        2.1566269397735596
      ],
      "min": [
        -1.2583789825439453,
        -2.7479779720306396,
        -1.4068050384521484
      ],
      "type": "VEC3"
    },
    {
      "bufferView": 2,
      "byteOffset": 1544664,
      "componentType": 5126,
      "count": 35252,
      "max": [
        0.99999654293060303,
        0.99996238946914673,
        0.99999815225601196
      ],
      "min": [
        -1,
        -0.9998924732208252,
        -0.99997252225875854
      ],
      "type": "VEC3"
    },
    {
      "bufferView": 1,
      "byteOffset": 373880,
      "componentType": 5126,
      "count": 35252,
      "max": [
        0.99164402484893799,
        0.99189299345016479
      ],
      "min": [
        0.0080639999359846115,
        0.0080570001155138016
      ],
      "type": "VEC2"
    },
    {
      "bufferView": 0,
      "byteOffset": 992484,
      "componentType": 5125,
      "count": 137712,
      "max": [
        35251
      ],
      "min": [
        0
      ],
      "type": "SCALAR"
    },
    {
      "bufferView": 2,
      "byteOffset": 1967688,
      "componentType": 5126,
      "count": 4259,
      "max": [
        1.9133540391921997,
        0.70562702417373657,
        2.2145249843597412
      ],
      "min": [
        -1.321789026260376,
        -2.5949490070343018,
        -1.2885420322418213
      ],
      "type": "VEC3"
    },
    {
      "bufferView": 2,
      "byteOffset": 2018796,
      "componentType": 5126,
      "count": 4259,
      "max": [
        0.99999934434890747,
        1,
        0.99999707937240601
      ],
      "min": [
        -1,
        -1,
        -0.99999707937240601
      ],
      "type": "VEC3"
    },
    {
      "bufferView": 1,
      "byteOffset": 655896,
      "componentType": 5126,
      "count": 4259,
      "max": [
        0.99101299047470093,
        0.99167400598526001
      ],
      "min": [
        0.0083250002935528755,
        0.34229600429534912
      ],
      "type": "VEC2"
    },
    {
      "bufferView": 0,
      "byteOffset": 1543332,
      "componentType": 5125,
      "count": 11007,
      "max": [
        4258
      ],
      "min": [
        0
      ],
      "type": "SCALAR"
    }
  ],
  "asset": {
    "extras": {
      "author": "Mikko Haapoja (https://sketchfab.com/mikkoh)",
      "license": "CC-BY-4.0 (http://creativecommons.org/licenses/by/4.0/)",
      "source": "https://sketchfab.com/3d-models/basket-83f888e2736e4d49b7f66a945492f6c4",
      "title": "Basket"
    },
    "generator": "Sketchfab-10.10.1-rc1",
    "version": "2.0"
  },
  "bufferViews": [
    {
      "buffer": 0,
      "byteLength": 1587360,
      "byteOffset": 0,
      "name": "floatBufferViews",
      "target": 34963
    },
    {
      "buffer": 0,
      "byteLength": 689968,
      "byteOffset": 1587360,
      "byteStride": 8,
      "name": "floatBufferViews",
      "target": 34962
    },
    {
      "buffer": 0,
      "byteLength": 2069904,
      "byteOffset": 2277328,
      "byteStride": 12,
      "name": "floatBufferViews",
      "target": 34962
    }
  ],
  "buffers": [
    {
      "byteLength": 4347232,
      "uri": "scene.bin"
    }
  ],
  "images": [
    {
      "uri": "textures/GeneratedMat4_baseColor.png"
    },
    {
      "uri": "textures/material0000_baseColor.jpeg"
    },
    {
      "uri": "textures/material0001_baseColor.jpeg"
    },
    {
      "uri": "textures/material0002_baseColor.jpeg"
    },
    {
      "uri": "textures/material0003_baseColor.jpeg"
    }
  ],
  "materials": [
    {
      "doubleSided": true,
      "emissiveFactor": [
        0,
        0,
        0
      ],
      "name": "GeneratedMat4",
      "pbrMetallicRoughness": {
        "baseColorFactor": [
          1,
          1,
          1,
          1
        ],
        "baseColorTexture": {
          "index": 0,
          "texCoord": 0
        },
        "metallicFactor": 0,
        "roughnessFactor": 1
      }
    },
    {
      "doubleSided": true,
      "emissiveFactor": [
        0,
        0,
        0
      ],
      "name": "material0000",
      "pbrMetallicRoughness": {
        "baseColorFactor": [
          1,
          1,
          1,
          1
        ],
        "baseColorTexture": {
          "index": 1,
          "texCoord": 0
        },
        "metallicFactor": 0,
        "roughnessFactor": 1
      }
    },
    {
      "doubleSided": true,
      "name": "material0001",
      "pbrMetallicRoughness": {
        "baseColorFactor": [
          1,
          1,
          1,
          1
        ],
        "baseColorTexture": {
          "index": 2,
          "texCoord": 0
        },
        "metallicFactor": 0,
        "roughnessFactor": 0
      }
    },
    {
      "doubleSided": true,
      "emissiveFactor": [
        0,
        0,
        0
      ],
      "name": "material0002",
      "pbrMetallicRoughness": {
        "baseColorFactor": [
          1,
          1,
          1,
          1
        ],
        "baseColorTexture": {
          "index": 3,
          "texCoord": 0
        },
        "metallicFactor": 0,
        "roughnessFactor": 1
      }
    },
    {
      "doubleSided": true,
      "emissiveFactor": [
        0,
        0,
        0
      ],
      "name": "material0003",
      "pbrMetallicRoughness": {
        "baseColorFactor": [
          1,
          1,
          1,
          1
        ],
        "baseColorTexture": {
          "index": 4,
          "texCoord": 0
        },
        "metallicFactor": 0,
        "roughnessFactor": 1
      }
    }
  ],
  "meshes": [
    {
      "primitives": [
        {
          "attributes": {
            "NORMAL": 1,
            "POSITION": 0,
            "TEXCOORD_0": 2
          },
          "indices": 3,
          "material": 0,
          "mode": 4
        }
      ]
    },
    {
      "primitives": [
        {
          "attributes": {
            "NORMAL": 5,
            "POSITION": 4,
            "TEXCOORD_0": 6
          },
          "indices": 7,
          "material": 1,
          "mode": 4
        }
      ]
    },
    {
      "primitives": [
        {
          "attributes": {
            "NORMAL": 9,
            "POSITION": 8,
            "TEXCOORD_0": 10
          },
          "indices": 11,
          "material": 2,
          "mode": 4
        }
      ]
    },
    {
      "primitives": [
        {
          "attributes": {
            "NORMAL": 13,
            "POSITION": 12,
            "TEXCOORD_0": 14
          },
          "indices": 15,
          "material": 3,
          "mode": 4
        }
      ]
    },
    {
      "primitives": [
        {
          "attributes": {
            "NORMAL": 17,
            "POSITION": 16,
            "TEXCOORD_0": 18
          },
          "indices": 19,
          "material": 4,
          "mode": 4
        }
      ]
    }
  ],
  "nodes": [
    {
      "children": [
        1
      ],
      "name": "RootNode (gltf orientation matrix)",
      "rotation": [
        -0.70710678118654746,
        -0,
        -0,
        0.70710678118654757
      ]
    },
    {
      "children": [
        2
      ],
      "matrix": [
        0.83243429660797119,
        -0.53724205493927002,
        0.13573557138442993,
        0,
        -0.43468782305717468,
        -0.48120051622390747,
        0.76124411821365356,
        0,
        -0.34365630149841309,
        -0.69268828630447388,
        -0.63410037755966187,
        0,
        -0.24010385572910309,
        -1.0210251808166504,
        1.3688020706176758,
        1
      ],
      "name": "RootNode (model correction matrix)"
    },
    {
      "children": [
        3,
        4,
        5,
        6,
        7
      ],
      "name": "basket.obj.cleaner.materialmerger.gles"
    },
    {
      "mesh": 0,
      "name": ""
    },
    {
      "mesh": 1,
      "name": ""
    },
    {
      "mesh": 2,
      "name": ""
    },
    {
      "mesh": 3,
      "name": ""
    },
    {
      "mesh": 4,
      "name": ""
    }
  ],
  "samplers": [
    {
      "magFilter": 9729,
      "minFilter": 9987,
      "wrapS": 10497,
      "wrapT": 10497
    }
  ],
  "scene": 0,
  "scenes": [
    {
      "name": "OSG_Scene",
      "nodes": [
        0
      ]
    }
  ],
  "textures": [
    {
      "sampler": 0,
      "source": 0
    },
    {
      "sampler": 0,
      "source": 1
    },
    {
      "sampler": 0,
      "source": 2
    },
    {
      "sampler": 0,
      "source": 3
    },
    {
      "sampler": 0,
      "source": 4
    }
  ]
}

